#!OML:ASF H:\LiuWeirdWalks\Patient Classification 1\Patient 1\Session 1\male.ASF
:FULLY-SPECIFIED
:DEGREES
178
root 0.532156 17.9398 -19.67 10.8651 -3.86755 0.921099
lowerback 8.48646 2.31048 -0.530379
upperback -1.13087 3.11067 1.44481
thorax -6.05459 1.57447 1.38271
lowerneck -17.9677 1.22792 4.50755
upperneck 17.569 2.11626 -7.79941
head 8.57399 0.477868 -3.12704
rclavicle 5.02925e-014 2.14687e-014
rhumerus -26.056 3.01615 -84.2545
rradius 32.8017
rwrist -9.17595
rhand -19.1223 -0.816225
rfingers 7.12502
rthumb 7.18707 -30.6742
lclavicle 5.02925e-014 2.14687e-014
lhumerus -50.7247 30.3044 58.9685
lradius 12.616
lwrist -15.2396
lhand -15.984 -0.455004
lfingers 7.12502
lthumb 10.2156 29.2769
rfemur -5.47851 -2.08426 15.4474
rtibia 52.2876
rfoot 32.634 -8.85826
rtoes 4.23584
lfemur -27.7425 3.86575 -24.219
ltibia 30.6721
lfoot -20.448 13.0093
ltoes -17.5257
179
root 0.551362 17.9525 -19.4415 10.5283 -4.14596 1.65195
lowerback 8.60067 2.18263 -1.4328
upperback -1.09148 2.83535 1.30293
thorax -6.10695 1.46709 1.7756
lowerneck -17.85 1.38044 4.62133
upperneck 17.689 2.31076 -7.82052
head 8.60846 0.575866 -3.13059
rclavicle 2.8625e-014 7.95139e-016
rhumerus -26.8456 2.97484 -84.2132
rradius 32.2553
rwrist -8.65188
rhand -18.8504 -1.05412
rfingers 7.12502
rthumb 7.44952 -30.903
lclavicle 2.8625e-014 7.95139e-016
lhumerus -49.2785 29.6677 61.0353
lradius 12.958
lwrist -13.7803
lhand -16.1438 -0.194196
lfingers 7.12502
lthumb 10.0614 29.5453
rfemur -7.69746 -2.95901 14.219
rtibia 56.1585
rfoot 29.2208 -9.39652
rtoes 4.65273
lfemur -26.1083 3.90882 -25.058
ltibia 29.7175
lfoot -19.693 12.7838
ltoes -17.3425
180
root 0.568274 17.9625 -19.2147 10.1989 -4.33754 2.43751
lowerback 8.73821 2.02408 -2.38336
upperback -1.06929 2.51042 1.14825
thorax -6.1829 1.33736 2.19006
lowerneck -17.7347 1.54191 4.7438
upperneck 17.8235 2.51082 -7.81551
head 8.64867 0.679647 -3.12618
rclavicle 2.0276e-014 -1.27222e-014
rhumerus -27.6842 2.821 -84.1293
rradius 31.6943
rwrist -8.17163
rhand -18.612 -1.24337
rfingers 7.12502
rthumb 7.67961 -31.0839
lclavicle 2.0276e-014 -1.27222e-014
lhumerus -47.6778 28.6972 63.3499
lradius 13.4095
lwrist -12.0839
lhand -16.2151 -0.0269207
lfingers 7.12502
lthumb 9.99265 29.7159
rfemur -9.96957 -3.93406 13.0011
rtibia 59.7814
rfoot 25.6006 -9.94553
rtoes 5.14246
lfemur -24.4812 3.91334 -25.9484
ltibia 28.7046
lfoot -18.8653 12.4855
ltoes -16.8027
181
root 0.583011 17.9694 -18.9896 9.89523 -4.43846 3.16527
lowerback 8.8766 1.83433 -3.26905
upperback -1.05578 2.14893 1.01265
thorax -6.25582 1.18845 2.59531
lowerneck -17.5844 1.71531 4.8956
upperneck 17.8916 2.71816 -7.81573
head 8.66129 0.789728 -3.12624
rclavicle -1.78906e-014 7.15625e-015
rhumerus -28.5508 2.55769 -83.9852
rradius 31.1053
rwrist -7.71623
rhand -18.406 -1.3252
rfingers 7.12502
rthumb 7.87845 -31.1584
lclavicle -1.78906e-014 7.15625e-015
lhumerus -45.9781 27.4575 65.797
lradius 13.9704
lwrist -10.257
lhand -16.2126 0.0768731
lfingers 7.12502
lthumb 9.99507 29.8196
rfemur -12.2847 -4.9582 11.9378
rtibia 63.0775
rfoot 22.0702 -10.4243
rtoes 6.43258
lfemur -22.9096 3.89953 -26.7674
ltibia 27.7223
lfoot -18.0338 12.1125
ltoes -15.8464
182
root 0.596274 17.9725 -18.7651 9.6294 -4.45829 3.77402
lowerback 9.002 1.62403 -4.01692
upperback -1.05068 1.77463 0.90614
thorax -6.31662 1.02953 2.95746
lowerneck -17.4304 1.86949 5.00373
upperneck 17.9663 2.9001 -7.76203
head 8.67245 0.890546 -3.10383
rclavicle -4.37326e-015 -2.38542e-014
rhumerus -29.4462 2.17588 -83.7727
rradius 30.5009
rwrist -7.30206
rhand -18.2753 -1.43541
rfingers 7.12502
rthumb 8.00459 -31.2638
lclavicle -4.37326e-015 -2.38542e-014
lhumerus -44.2161 25.956 68.2992
lradius 14.6368
lwrist -8.33424
lhand -16.1823 0.185177
lfingers 7.12502
lthumb 10.0243 29.9264
rfemur -14.6274 -5.98767 11.1074
rtibia 65.9913
rfoot 18.6545 -10.8884
rtoes 7.98839
lfemur -21.4276 3.85807 -27.4503
ltibia 26.8501
lfoot -17.2782 11.7258
ltoes -14.4739
183
root 0.608124 17.9714 -18.541 9.40888 -4.39647 4.23658
lowerback 9.10352 1.3905 -4.59554
upperback -1.04815 1.38935 0.83312
thorax -6.35362 0.859936 3.26284
lowerneck -17.3016 2.03236 5.1817
upperneck 18.0056 3.08496 -7.76509
head 8.67846 0.991504 -3.11182
rclavicle 6.95746e-016 1.03368e-014
rhumerus -30.3449 1.67306 -83.4875
rradius 29.8623
rwrist -6.92398
rhand -18.2118 -1.61705
rfingers 7.12502
rthumb 8.06589 -31.4431
lclavicle 6.95746e-016 1.03368e-014
lhumerus -42.4315 24.2316 70.7647
lradius 15.4067
lwrist -6.35253
lhand -16.1221 0.345068
lfingers 7.12502
lthumb 10.0823 30.0835
rfemur -16.988 -6.99179 10.553
rtibia 68.4963
rfoot 15.325 -11.4084
rtoes 9.5601
lfemur -20.0684 3.79594 -27.9711
ltibia 26.1462
lfoot -16.6248 11.3572
ltoes -12.8154
184
root 0.618908 17.9662 -18.3157 9.22403 -4.29198 4.56033
lowerback 9.17199 1.1531 -5.01838
upperback -1.04077 1.01896 0.789709
thorax -6.35866 0.692107 3.5105
lowerneck -17.2023 2.16439 5.31943
upperneck 18.0455 3.23113 -7.73994
head 8.68639 1.07385 -3.10835
rclavicle -1.09332e-014 -1.59028e-015
rhumerus -31.2591 1.06364 -83.1185
rradius 29.2128
rwrist -6.60604
rhand -18.2046 -1.90254
rfingers 7.12502
rthumb 8.07286 -31.7284
lclavicle -1.09332e-014 -1.59028e-015
lhumerus -40.6647 22.3558 73.1077
lradius 16.2671
lwrist -4.38145
lhand -16.0836 0.495084
lfingers 7.12502
lthumb 10.1195 30.2317
rfemur -19.356 -7.92423 10.2644
rtibia 70.5816
rfoot 12.0065 -11.9764
rtoes 10.7735
lfemur -18.8223 3.71496 -28.3412
ltibia 25.6286
lfoot -16.0956 11.0486
ltoes -11.0338
185
root 0.628086 17.9565 -18.0901 9.0721 -4.14568 4.78941
lowerback 9.22033 0.9106 -5.34312
upperback -1.03815 0.654884 0.769868
thorax -6.3518 0.524193 3.72708
lowerneck -17.1004 2.29442 5.50199
upperneck 18.0461 3.3714 -7.76393
head 8.6819 1.15186 -3.12946
rclavicle 1.35174e-014 1.59028e-015
rhumerus -32.1951 0.366728 -82.6588
rradius 28.5502
rwrist -6.37228
rhand -18.2307 -2.32614
rfingers 7.12502
rthumb 8.04764 -32.1529
lclavicle 1.35174e-014 1.59028e-015
lhumerus -38.9549 20.3738 75.2759
lradius 17.2085
lwrist -2.4587
lhand -16.0608 0.649372
lfingers 7.12502
lthumb 10.1415 30.385
rfemur -21.7242 -8.77037 10.1948
rtibia 72.2597
rfoot 8.67737 -12.5715
rtoes 11.3617
lfemur -17.6868 3.5887 -28.6054
ltibia 25.2847
lfoot -15.7071 10.8318
ltoes -9.39663
186
root 0.635597 17.9415 -17.864 8.92777 -3.9794 5.00276
lowerback 9.26357 0.674922 -5.64665
upperback -1.03239 0.302156 0.746227
thorax -6.33579 0.360659 3.92598
lowerneck -17.0254 2.39796 5.64946
upperneck 18.049 3.47653 -7.7549
head 8.67946 1.21379 -3.13785
rclavicle -1.69961e-014 -1.66979e-014
rhumerus -33.1524 -0.422432 -82.1077
rradius 27.8785
rwrist -6.23266
rhand -18.2755 -2.84924
rfingers 7.12502
rthumb 8.00444 -32.6777
lclavicle -1.69961e-014 -1.66979e-014
lhumerus -37.3054 18.3831 77.1981
lradius 18.1898
lwrist -0.644086
lhand -16.0473 0.669597
lfingers 7.12502
lthumb 10.1545 30.4045
rfemur -24.0685 -9.52407 10.2381
rtibia 73.5488
rfoot 5.44808 -13.1274
rtoes 11.7207
lfemur -16.619 3.4409 -28.8533
ltibia 25.0736
lfoot -15.4426 10.7039
ltoes -8.04059
187
root 0.641038 17.9213 -17.6376 8.78023 -3.8108 5.2513
lowerback 9.30546 0.451594 -6.00049
upperback -1.01731 -0.0404609 0.711701
thorax -6.30705 0.202945 4.14019
lowerneck -16.969 2.48129 5.75105
upperneck 18.0776 3.55824 -7.70676
head 8.68592 1.265 -3.12846
rclavicle -1.45113e-014 -1.59028e-015
rhumerus -34.1239 -1.29226 -81.4563
rradius 27.1942
rwrist -6.13376
rhand -18.3168 -3.44638
rfingers 7.12502
rthumb 7.96462 -33.2763
lclavicle -1.45113e-014 -1.59028e-015
lhumerus -35.6889 16.4422 78.8746
lradius 19.182
lwrist 1.05175
lhand -16.0463 0.584157
lfingers 7.12502
lthumb 10.1555 30.3191
rfemur -26.3799 -10.1651 10.3238
rtibia 74.4671
rfoot 2.41255 -13.597
rtoes 11.9723
lfemur -15.5866 3.2835 -29.1407
ltibia 24.9504
lfoot -15.321 10.6684
ltoes -7.06299
